<svg width="230" height="162" viewBox="0 0 230 162" fill="none" xmlns="http://www.w3.org/2000/svg">
<path d="M0 24C0 10.7452 10.7452 0 24 0H206C219.255 0 230 10.7452 230 24V138C230 151.255 219.255 162 206 162H24C10.7452 162 0 151.255 0 138V24Z" fill="#3661FB"/>
<path fill-rule="evenodd" clip-rule="evenodd" d="M129.267 57.9024C128.57 58.3434 127.748 58.398 127.124 58.0459C126.331 57.598 125.895 56.5493 125.895 55.0907V50.7268C125.895 48.6195 125.061 47.12 123.668 46.7151C121.307 46.0273 119.532 48.9161 118.864 50.001L114.7 56.7522V48.5005C114.654 46.602 114.037 45.4663 112.866 45.1239C112.092 44.8976 110.933 44.9883 109.807 46.7112L100.478 61.6907C99.2291 59.3198 98.5781 56.6798 98.5815 54C98.5815 44.9766 105.813 37.6361 114.7 37.6361C123.588 37.6361 130.819 44.9766 130.819 54C130.819 54.0156 130.822 54.0293 130.823 54.0439C130.823 54.0595 130.82 54.0732 130.821 54.0888C130.905 55.8361 130.34 57.2254 129.267 57.9024ZM134.4 54.001V53.9551L134.399 53.9102C134.349 42.921 125.533 34 114.7 34C103.838 34 95 42.9717 95 54C95 65.0273 103.838 74 114.7 74C119.685 74 124.442 72.1054 128.094 68.6663C128.82 67.9834 128.862 66.8332 128.189 66.0976C128.031 65.9228 127.839 65.7815 127.625 65.6818C127.412 65.5821 127.18 65.5261 126.944 65.517C126.709 65.5079 126.474 65.546 126.253 65.6289C126.032 65.7118 125.83 65.838 125.659 66C122.699 68.8029 118.777 70.3647 114.7 70.3639C109.941 70.3639 105.66 68.2576 102.706 64.9171L111.119 51.4088V57.6361C111.119 60.6273 112.279 61.5941 113.252 61.8771C114.225 62.16 115.713 61.9668 117.275 59.4302L121.902 51.9288C122.051 51.6868 122.187 51.478 122.312 51.2976V55.0907C122.312 57.8868 123.432 60.1229 125.384 61.2244C127.144 62.2176 129.357 62.1278 131.16 60.9902C133.345 59.6098 134.523 57.0663 134.4 54.001Z" fill="white"/>
<path d="M33.1121 117C33.1121 115.627 33.4188 114.4 34.0321 113.32C34.6588 112.227 35.5054 111.38 36.5721 110.78C37.6521 110.167 38.8588 109.86 40.1921 109.86C41.7521 109.86 43.1188 110.26 44.2921 111.06C45.4654 111.86 46.2854 112.967 46.7521 114.38H43.5321C43.2121 113.713 42.7588 113.213 42.1721 112.88C41.5988 112.547 40.9321 112.38 40.1721 112.38C39.3588 112.38 38.6321 112.573 37.9921 112.96C37.3654 113.333 36.8721 113.867 36.5121 114.56C36.1654 115.253 35.9921 116.067 35.9921 117C35.9921 117.92 36.1654 118.733 36.5121 119.44C36.8721 120.133 37.3654 120.673 37.9921 121.06C38.6321 121.433 39.3588 121.62 40.1721 121.62C40.9321 121.62 41.5988 121.453 42.1721 121.12C42.7588 120.773 43.2121 120.267 43.5321 119.6H46.7521C46.2854 121.027 45.4654 122.14 44.2921 122.94C43.1321 123.727 41.7654 124.12 40.1921 124.12C38.8588 124.12 37.6521 123.82 36.5721 123.22C35.5054 122.607 34.6588 121.76 34.0321 120.68C33.4188 119.6 33.1121 118.373 33.1121 117ZM54.0637 124.18C52.997 124.18 52.037 123.947 51.1837 123.48C50.3303 123 49.657 122.327 49.1637 121.46C48.6837 120.593 48.4437 119.593 48.4437 118.46C48.4437 117.327 48.6903 116.327 49.1837 115.46C49.6903 114.593 50.377 113.927 51.2437 113.46C52.1103 112.98 53.077 112.74 54.1437 112.74C55.2103 112.74 56.177 112.98 57.0437 113.46C57.9103 113.927 58.5903 114.593 59.0837 115.46C59.5903 116.327 59.8437 117.327 59.8437 118.46C59.8437 119.593 59.5837 120.593 59.0637 121.46C58.557 122.327 57.8637 123 56.9837 123.48C56.117 123.947 55.1437 124.18 54.0637 124.18ZM54.0637 121.74C54.5703 121.74 55.0437 121.62 55.4837 121.38C55.937 121.127 56.297 120.753 56.5637 120.26C56.8303 119.767 56.9637 119.167 56.9637 118.46C56.9637 117.407 56.6837 116.6 56.1237 116.04C55.577 115.467 54.9037 115.18 54.1037 115.18C53.3037 115.18 52.6303 115.467 52.0837 116.04C51.5503 116.6 51.2837 117.407 51.2837 118.46C51.2837 119.513 51.5437 120.327 52.0637 120.9C52.597 121.46 53.2637 121.74 54.0637 121.74ZM63.3176 111.6C62.8242 111.6 62.4109 111.447 62.0776 111.14C61.7576 110.82 61.5976 110.427 61.5976 109.96C61.5976 109.493 61.7576 109.107 62.0776 108.8C62.4109 108.48 62.8242 108.32 63.3176 108.32C63.8109 108.32 64.2176 108.48 64.5376 108.8C64.8709 109.107 65.0376 109.493 65.0376 109.96C65.0376 110.427 64.8709 110.82 64.5376 111.14C64.2176 111.447 63.8109 111.6 63.3176 111.6ZM64.6976 112.92V124H61.8976V112.92H64.6976ZM73.604 112.76C74.924 112.76 75.9907 113.18 76.804 114.02C77.6173 114.847 78.024 116.007 78.024 117.5V124H75.224V117.88C75.224 117 75.004 116.327 74.564 115.86C74.124 115.38 73.524 115.14 72.764 115.14C71.9907 115.14 71.3773 115.38 70.924 115.86C70.484 116.327 70.264 117 70.264 117.88V124H67.464V112.92H70.264V114.3C70.6373 113.82 71.1107 113.447 71.684 113.18C72.2707 112.9 72.9107 112.76 73.604 112.76ZM94.4466 112.76C95.8066 112.76 96.9 113.18 97.7266 114.02C98.5666 114.847 98.9866 116.007 98.9866 117.5V124H96.1866V117.88C96.1866 117.013 95.9666 116.353 95.5266 115.9C95.0866 115.433 94.4866 115.2 93.7266 115.2C92.9666 115.2 92.36 115.433 91.9066 115.9C91.4666 116.353 91.2466 117.013 91.2466 117.88V124H88.4466V117.88C88.4466 117.013 88.2266 116.353 87.7866 115.9C87.3466 115.433 86.7466 115.2 85.9866 115.2C85.2133 115.2 84.6 115.433 84.1466 115.9C83.7066 116.353 83.4866 117.013 83.4866 117.88V124H80.6866V112.92H83.4866V114.26C83.8466 113.793 84.3066 113.427 84.8666 113.16C85.44 112.893 86.0666 112.76 86.7466 112.76C87.6133 112.76 88.3866 112.947 89.0666 113.32C89.7466 113.68 90.2733 114.2 90.6466 114.88C91.0066 114.24 91.5266 113.727 92.2066 113.34C92.9 112.953 93.6466 112.76 94.4466 112.76ZM100.924 118.42C100.924 117.3 101.144 116.307 101.584 115.44C102.037 114.573 102.644 113.907 103.404 113.44C104.177 112.973 105.037 112.74 105.984 112.74C106.81 112.74 107.53 112.907 108.144 113.24C108.77 113.573 109.27 113.993 109.644 114.5V112.92H112.464V124H109.644V122.38C109.284 122.9 108.784 123.333 108.144 123.68C107.517 124.013 106.79 124.18 105.964 124.18C105.03 124.18 104.177 123.94 103.404 123.46C102.644 122.98 102.037 122.307 101.584 121.44C101.144 120.56 100.924 119.553 100.924 118.42ZM109.644 118.46C109.644 117.78 109.51 117.2 109.244 116.72C108.977 116.227 108.617 115.853 108.164 115.6C107.71 115.333 107.224 115.2 106.704 115.2C106.184 115.2 105.704 115.327 105.264 115.58C104.824 115.833 104.464 116.207 104.184 116.7C103.917 117.18 103.784 117.753 103.784 118.42C103.784 119.087 103.917 119.673 104.184 120.18C104.464 120.673 104.824 121.053 105.264 121.32C105.717 121.587 106.197 121.72 106.704 121.72C107.224 121.72 107.71 121.593 108.164 121.34C108.617 121.073 108.977 120.7 109.244 120.22C109.51 119.727 109.644 119.14 109.644 118.46ZM117.998 114.64C118.358 114.053 118.825 113.593 119.398 113.26C119.985 112.927 120.652 112.76 121.398 112.76V115.7H120.658C119.778 115.7 119.112 115.907 118.658 116.32C118.218 116.733 117.998 117.453 117.998 118.48V124H115.198V112.92H117.998V114.64ZM129.844 124L126.084 119.28V124H123.284V109.2H126.084V117.62L129.804 112.92H133.444L128.564 118.48L133.484 124H129.844ZM145.264 118.22C145.264 118.62 145.237 118.98 145.184 119.3H137.084C137.151 120.1 137.431 120.727 137.924 121.18C138.417 121.633 139.024 121.86 139.744 121.86C140.784 121.86 141.524 121.413 141.964 120.52H144.984C144.664 121.587 144.051 122.467 143.144 123.16C142.237 123.84 141.124 124.18 139.804 124.18C138.737 124.18 137.777 123.947 136.924 123.48C136.084 123 135.424 122.327 134.944 121.46C134.477 120.593 134.244 119.593 134.244 118.46C134.244 117.313 134.477 116.307 134.944 115.44C135.411 114.573 136.064 113.907 136.904 113.44C137.744 112.973 138.711 112.74 139.804 112.74C140.857 112.74 141.797 112.967 142.624 113.42C143.464 113.873 144.111 114.52 144.564 115.36C145.031 116.187 145.264 117.14 145.264 118.22ZM142.364 117.42C142.351 116.7 142.091 116.127 141.584 115.7C141.077 115.26 140.457 115.04 139.724 115.04C139.031 115.04 138.444 115.253 137.964 115.68C137.497 116.093 137.211 116.673 137.104 117.42H142.364ZM150.568 115.22V120.58C150.568 120.953 150.654 121.227 150.828 121.4C151.014 121.56 151.321 121.64 151.748 121.64H153.048V124H151.288C148.928 124 147.748 122.853 147.748 120.56V115.22H146.428V112.92H147.748V110.18H150.568V112.92H153.048V115.22H150.568ZM159.107 118.46C159.107 117.313 159.341 116.313 159.807 115.46C160.274 114.593 160.921 113.927 161.747 113.46C162.574 112.98 163.521 112.74 164.587 112.74C165.961 112.74 167.094 113.087 167.987 113.78C168.894 114.46 169.501 115.42 169.807 116.66H166.787C166.627 116.18 166.354 115.807 165.967 115.54C165.594 115.26 165.127 115.12 164.567 115.12C163.767 115.12 163.134 115.413 162.667 116C162.201 116.573 161.967 117.393 161.967 118.46C161.967 119.513 162.201 120.333 162.667 120.92C163.134 121.493 163.767 121.78 164.567 121.78C165.701 121.78 166.441 121.273 166.787 120.26H169.807C169.501 121.46 168.894 122.413 167.987 123.12C167.081 123.827 165.947 124.18 164.587 124.18C163.521 124.18 162.574 123.947 161.747 123.48C160.921 123 160.274 122.333 159.807 121.48C159.341 120.613 159.107 119.607 159.107 118.46ZM171.139 118.42C171.139 117.3 171.359 116.307 171.799 115.44C172.252 114.573 172.859 113.907 173.619 113.44C174.392 112.973 175.252 112.74 176.199 112.74C177.025 112.74 177.745 112.907 178.359 113.24C178.985 113.573 179.485 113.993 179.859 114.5V112.92H182.679V124H179.859V122.38C179.499 122.9 178.999 123.333 178.359 123.68C177.732 124.013 177.005 124.18 176.179 124.18C175.245 124.18 174.392 123.94 173.619 123.46C172.859 122.98 172.252 122.307 171.799 121.44C171.359 120.56 171.139 119.553 171.139 118.42ZM179.859 118.46C179.859 117.78 179.725 117.2 179.459 116.72C179.192 116.227 178.832 115.853 178.379 115.6C177.925 115.333 177.439 115.2 176.919 115.2C176.399 115.2 175.919 115.327 175.479 115.58C175.039 115.833 174.679 116.207 174.399 116.7C174.132 117.18 173.999 117.753 173.999 118.42C173.999 119.087 174.132 119.673 174.399 120.18C174.679 120.673 175.039 121.053 175.479 121.32C175.932 121.587 176.412 121.72 176.919 121.72C177.439 121.72 177.925 121.593 178.379 121.34C178.832 121.073 179.192 120.7 179.459 120.22C179.725 119.727 179.859 119.14 179.859 118.46ZM188.213 114.52C188.573 114.013 189.067 113.593 189.693 113.26C190.333 112.913 191.06 112.74 191.873 112.74C192.82 112.74 193.673 112.973 194.433 113.44C195.207 113.907 195.813 114.573 196.253 115.44C196.707 116.293 196.933 117.287 196.933 118.42C196.933 119.553 196.707 120.56 196.253 121.44C195.813 122.307 195.207 122.98 194.433 123.46C193.673 123.94 192.82 124.18 191.873 124.18C191.06 124.18 190.34 124.013 189.713 123.68C189.1 123.347 188.6 122.927 188.213 122.42V129.28H185.413V112.92H188.213V114.52ZM194.073 118.42C194.073 117.753 193.933 117.18 193.653 116.7C193.387 116.207 193.027 115.833 192.573 115.58C192.133 115.327 191.653 115.2 191.133 115.2C190.627 115.2 190.147 115.333 189.693 115.6C189.253 115.853 188.893 116.227 188.613 116.72C188.347 117.213 188.213 117.793 188.213 118.46C188.213 119.127 188.347 119.707 188.613 120.2C188.893 120.693 189.253 121.073 189.693 121.34C190.147 121.593 190.627 121.72 191.133 121.72C191.653 121.72 192.133 121.587 192.573 121.32C193.027 121.053 193.387 120.673 193.653 120.18C193.933 119.687 194.073 119.1 194.073 118.42Z" fill="white"/>
</svg>
