<svg width="220" height="162" viewBox="0 0 220 162" fill="none" xmlns="http://www.w3.org/2000/svg">
<path d="M0 24C0 10.7452 10.7452 0 24 0H196C209.255 0 220 10.7452 220 24V138C220 151.255 209.255 162 196 162H24C10.7452 162 0 151.255 0 138V24Z" fill="#826BFF"/>
<path fill-rule="evenodd" clip-rule="evenodd" d="M88.4866 44.9968C85.1711 48.3123 85.1711 53.6877 88.4866 57.0032L100.997 69.5134C104.312 72.8289 109.688 72.8289 113.003 69.5134L125.513 57.0032C128.829 53.6877 128.829 48.3123 125.513 44.9968L113.003 32.4866C109.688 29.1711 104.312 29.1711 100.997 32.4866L88.4866 44.9968ZM107 38.3622L94.3622 51L107 63.6378L119.638 51L107 38.3622Z" fill="white"/>
<path d="M97.7009 54.3562C98.7955 53.5286 101.049 51.0084 101.305 47.5484C101.625 43.2234 101.946 42.1822 103.067 40.7406C104.188 39.2989 107.953 36.6559 112.598 36.5758C113.159 34.1731 117.964 34.2531 118.685 37.2966C120.581 37.7772 124.42 39.1067 124.612 40.5804C124.852 42.4225 122.77 44.0244 119.166 45.2258C115.561 46.4271 112.438 48.4294 111.877 53.5553C111.429 57.6561 111.717 58.6011 111.877 58.7613" stroke="black" stroke-width="1.28147"/>
<path d="M103.067 40.7406C101.946 42.1822 101.625 43.2234 101.305 47.5484C101.055 50.9159 99.3027 53.235 97.6207 54.4364L106.911 64.1275L111.957 59.0016C111.877 58.8414 111.428 57.6561 111.877 53.5553C112.438 48.4294 115.561 46.4271 119.165 45.2258C122.77 44.0244 124.852 42.4225 124.612 40.5804C124.419 39.1067 120.58 37.7772 118.685 37.2966C117.964 34.2531 113.158 34.1731 112.598 36.5758C107.952 36.6559 104.188 39.2989 103.067 40.7406Z" fill="white"/>
<ellipse cx="115.481" cy="38.1762" rx="2.40276" ry="2.40276" fill="black"/>
<path d="M116.282 36.2541C116.282 37.0503 115.637 37.6957 114.841 37.6957C114.044 37.6957 113.399 37.0503 113.399 36.2541C113.399 35.4579 114.841 36.0939 115.241 35.293C116.037 35.293 116.282 35.4579 116.282 36.2541Z" fill="white"/>
<path d="M43.1117 114.24C42.7917 113.653 42.3517 113.207 41.7917 112.9C41.2317 112.593 40.5784 112.44 39.8317 112.44C39.0051 112.44 38.2717 112.627 37.6317 113C36.9917 113.373 36.4917 113.907 36.1317 114.6C35.7717 115.293 35.5917 116.093 35.5917 117C35.5917 117.933 35.7717 118.747 36.1317 119.44C36.5051 120.133 37.0184 120.667 37.6717 121.04C38.3251 121.413 39.0851 121.6 39.9517 121.6C41.0184 121.6 41.8917 121.32 42.5717 120.76C43.2517 120.187 43.6984 119.393 43.9117 118.38H39.1117V116.24H46.6717V118.68C46.4851 119.653 46.0851 120.553 45.4717 121.38C44.8584 122.207 44.0651 122.873 43.0917 123.38C42.1317 123.873 41.0517 124.12 39.8517 124.12C38.5051 124.12 37.2851 123.82 36.1917 123.22C35.1117 122.607 34.2584 121.76 33.6317 120.68C33.0184 119.6 32.7117 118.373 32.7117 117C32.7117 115.627 33.0184 114.4 33.6317 113.32C34.2584 112.227 35.1117 111.38 36.1917 110.78C37.2851 110.167 38.4984 109.86 39.8317 109.86C41.4051 109.86 42.7717 110.247 43.9317 111.02C45.0917 111.78 45.8917 112.853 46.3317 114.24H43.1117ZM59.0433 118.22C59.0433 118.62 59.0166 118.98 58.9633 119.3H50.8633C50.9299 120.1 51.2099 120.727 51.7033 121.18C52.1966 121.633 52.8033 121.86 53.5233 121.86C54.5633 121.86 55.3033 121.413 55.7433 120.52H58.7633C58.4433 121.587 57.8299 122.467 56.9233 123.16C56.0166 123.84 54.9033 124.18 53.5833 124.18C52.5166 124.18 51.5566 123.947 50.7033 123.48C49.8633 123 49.2033 122.327 48.7233 121.46C48.2566 120.593 48.0233 119.593 48.0233 118.46C48.0233 117.313 48.2566 116.307 48.7233 115.44C49.1899 114.573 49.8433 113.907 50.6833 113.44C51.5233 112.973 52.4899 112.74 53.5833 112.74C54.6366 112.74 55.5766 112.967 56.4033 113.42C57.2433 113.873 57.8899 114.52 58.3433 115.36C58.8099 116.187 59.0433 117.14 59.0433 118.22ZM56.1433 117.42C56.1299 116.7 55.8699 116.127 55.3633 115.7C54.8566 115.26 54.2366 115.04 53.5033 115.04C52.8099 115.04 52.2233 115.253 51.7433 115.68C51.2766 116.093 50.9899 116.673 50.8833 117.42H56.1433ZM60.367 118.46C60.367 117.313 60.6004 116.313 61.067 115.46C61.5337 114.593 62.1804 113.927 63.007 113.46C63.8337 112.98 64.7804 112.74 65.847 112.74C67.2204 112.74 68.3537 113.087 69.247 113.78C70.1537 114.46 70.7604 115.42 71.067 116.66H68.047C67.887 116.18 67.6137 115.807 67.227 115.54C66.8537 115.26 66.387 115.12 65.827 115.12C65.027 115.12 64.3937 115.413 63.927 116C63.4604 116.573 63.227 117.393 63.227 118.46C63.227 119.513 63.4604 120.333 63.927 120.92C64.3937 121.493 65.027 121.78 65.827 121.78C66.9604 121.78 67.7004 121.273 68.047 120.26H71.067C70.7604 121.46 70.1537 122.413 69.247 123.12C68.3404 123.827 67.207 124.18 65.847 124.18C64.7804 124.18 63.8337 123.947 63.007 123.48C62.1804 123 61.5337 122.333 61.067 121.48C60.6004 120.613 60.367 119.607 60.367 118.46ZM79.6783 124L75.9183 119.28V124H73.1183V109.2H75.9183V117.62L79.6383 112.92H83.2783L78.3983 118.48L83.3183 124H79.6783ZM89.718 124.18C88.6513 124.18 87.6913 123.947 86.838 123.48C85.9846 123 85.3113 122.327 84.818 121.46C84.338 120.593 84.098 119.593 84.098 118.46C84.098 117.327 84.3446 116.327 84.838 115.46C85.3446 114.593 86.0313 113.927 86.898 113.46C87.7646 112.98 88.7313 112.74 89.798 112.74C90.8646 112.74 91.8313 112.98 92.698 113.46C93.5646 113.927 94.2446 114.593 94.738 115.46C95.2446 116.327 95.498 117.327 95.498 118.46C95.498 119.593 95.238 120.593 94.718 121.46C94.2113 122.327 93.518 123 92.638 123.48C91.7713 123.947 90.798 124.18 89.718 124.18ZM89.718 121.74C90.2246 121.74 90.698 121.62 91.138 121.38C91.5913 121.127 91.9513 120.753 92.218 120.26C92.4846 119.767 92.618 119.167 92.618 118.46C92.618 117.407 92.338 116.6 91.778 116.04C91.2313 115.467 90.558 115.18 89.758 115.18C88.958 115.18 88.2846 115.467 87.738 116.04C87.2046 116.6 86.938 117.407 86.938 118.46C86.938 119.513 87.198 120.327 87.718 120.9C88.2513 121.46 88.918 121.74 89.718 121.74ZM105.578 115.22V120.58C105.578 120.953 105.664 121.227 105.838 121.4C106.024 121.56 106.331 121.64 106.758 121.64H108.058V124H106.298C103.938 124 102.758 122.853 102.758 120.56V115.22H101.438V112.92H102.758V110.18H105.578V112.92H108.058V115.22H105.578ZM120.371 118.22C120.371 118.62 120.345 118.98 120.291 119.3H112.191C112.258 120.1 112.538 120.727 113.031 121.18C113.525 121.633 114.131 121.86 114.851 121.86C115.891 121.86 116.631 121.413 117.071 120.52H120.091C119.771 121.587 119.158 122.467 118.251 123.16C117.345 123.84 116.231 124.18 114.911 124.18C113.845 124.18 112.885 123.947 112.031 123.48C111.191 123 110.531 122.327 110.051 121.46C109.585 120.593 109.351 119.593 109.351 118.46C109.351 117.313 109.585 116.307 110.051 115.44C110.518 114.573 111.171 113.907 112.011 113.44C112.851 112.973 113.818 112.74 114.911 112.74C115.965 112.74 116.905 112.967 117.731 113.42C118.571 113.873 119.218 114.52 119.671 115.36C120.138 116.187 120.371 117.14 120.371 118.22ZM117.471 117.42C117.458 116.7 117.198 116.127 116.691 115.7C116.185 115.26 115.565 115.04 114.831 115.04C114.138 115.04 113.551 115.253 113.071 115.68C112.605 116.093 112.318 116.673 112.211 117.42H117.471ZM125.215 114.64C125.575 114.053 126.042 113.593 126.615 113.26C127.202 112.927 127.868 112.76 128.615 112.76V115.7H127.875C126.995 115.7 126.328 115.907 125.875 116.32C125.435 116.733 125.215 117.453 125.215 118.48V124H122.415V112.92H125.215V114.64ZM144.261 112.76C145.621 112.76 146.714 113.18 147.541 114.02C148.381 114.847 148.801 116.007 148.801 117.5V124H146.001V117.88C146.001 117.013 145.781 116.353 145.341 115.9C144.901 115.433 144.301 115.2 143.541 115.2C142.781 115.2 142.174 115.433 141.721 115.9C141.281 116.353 141.061 117.013 141.061 117.88V124H138.261V117.88C138.261 117.013 138.041 116.353 137.601 115.9C137.161 115.433 136.561 115.2 135.801 115.2C135.028 115.2 134.414 115.433 133.961 115.9C133.521 116.353 133.301 117.013 133.301 117.88V124H130.501V112.92H133.301V114.26C133.661 113.793 134.121 113.427 134.681 113.16C135.254 112.893 135.881 112.76 136.561 112.76C137.428 112.76 138.201 112.947 138.881 113.32C139.561 113.68 140.088 114.2 140.461 114.88C140.821 114.24 141.341 113.727 142.021 113.34C142.714 112.953 143.461 112.76 144.261 112.76ZM152.878 111.6C152.385 111.6 151.971 111.447 151.638 111.14C151.318 110.82 151.158 110.427 151.158 109.96C151.158 109.493 151.318 109.107 151.638 108.8C151.971 108.48 152.385 108.32 152.878 108.32C153.371 108.32 153.778 108.48 154.098 108.8C154.431 109.107 154.598 109.493 154.598 109.96C154.598 110.427 154.431 110.82 154.098 111.14C153.778 111.447 153.371 111.6 152.878 111.6ZM154.258 112.92V124H151.458V112.92H154.258ZM163.165 112.76C164.485 112.76 165.551 113.18 166.365 114.02C167.178 114.847 167.585 116.007 167.585 117.5V124H164.785V117.88C164.785 117 164.565 116.327 164.125 115.86C163.685 115.38 163.085 115.14 162.325 115.14C161.551 115.14 160.938 115.38 160.485 115.86C160.045 116.327 159.825 117 159.825 117.88V124H157.025V112.92H159.825V114.3C160.198 113.82 160.671 113.447 161.245 113.18C161.831 112.9 162.471 112.76 163.165 112.76ZM169.527 118.42C169.527 117.3 169.747 116.307 170.187 115.44C170.641 114.573 171.247 113.907 172.007 113.44C172.781 112.973 173.641 112.74 174.587 112.74C175.414 112.74 176.134 112.907 176.747 113.24C177.374 113.573 177.874 113.993 178.247 114.5V112.92H181.067V124H178.247V122.38C177.887 122.9 177.387 123.333 176.747 123.68C176.121 124.013 175.394 124.18 174.567 124.18C173.634 124.18 172.781 123.94 172.007 123.46C171.247 122.98 170.641 122.307 170.187 121.44C169.747 120.56 169.527 119.553 169.527 118.42ZM178.247 118.46C178.247 117.78 178.114 117.2 177.847 116.72C177.581 116.227 177.221 115.853 176.767 115.6C176.314 115.333 175.827 115.2 175.307 115.2C174.787 115.2 174.307 115.327 173.867 115.58C173.427 115.833 173.067 116.207 172.787 116.7C172.521 117.18 172.387 117.753 172.387 118.42C172.387 119.087 172.521 119.673 172.787 120.18C173.067 120.673 173.427 121.053 173.867 121.32C174.321 121.587 174.801 121.72 175.307 121.72C175.827 121.72 176.314 121.593 176.767 121.34C177.221 121.073 177.581 120.7 177.847 120.22C178.114 119.727 178.247 119.14 178.247 118.46ZM186.602 109.2V124H183.802V109.2H186.602Z" fill="white"/>
</svg>
